<?xml version="1.0" standalone="no"?>
<!DOCTYPE svg PUBLIC "-//W3C//DTD SVG 20010904//EN"
 "http://www.w3.org/TR/2001/REC-SVG-20010904/DTD/svg10.dtd">
<svg version="1.0" xmlns="http://www.w3.org/2000/svg"
 width="1000.000000pt" height="1000.000000pt" viewBox="0 0 1000.000000 1000.000000"
 preserveAspectRatio="xMidYMid meet">
<metadata>
Created by potrace 1.11, written by Peter Selinger 2001-2013
</metadata>
<g transform="translate(0.000000,1000.000000) scale(0.100000,-0.100000)"
fill="#000000" stroke="none">
<path d="M4920 9139 c-14 -11 -34 -28 -46 -37 -11 -9 -36 -28 -55 -42 -19 -13
-38 -28 -44 -32 -92 -78 -628 -428 -653 -428 -4 0 -30 19 -57 43 -190 163
-426 316 -650 423 -63 30 -115 54 -117 54 -3 0 6 -51 19 -112 12 -62 25 -129
28 -148 2 -19 6 -44 9 -55 4 -22 13 -82 20 -135 3 -19 8 -56 11 -82 33 -223
39 -810 11 -953 -2 -11 -7 -51 -12 -90 -4 -38 -8 -72 -9 -75 0 -3 -4 -27 -8
-55 -5 -27 -14 -84 -23 -125 -23 -118 -27 -135 -48 -215 -9 -33 -18 -67 -20
-75 -44 -176 -177 -495 -295 -705 -34 -60 -146 -225 -178 -264 l-29 -34 -12
44 c-6 24 -25 100 -42 169 -61 249 -158 521 -242 680 -144 271 -320 441 -461
444 -36 1 -42 -2 -40 -19 1 -11 5 -49 9 -85 3 -36 8 -74 11 -85 9 -36 12 -459
3 -515 -23 -159 -22 -151 -49 -257 -65 -253 -193 -511 -378 -766 -37 -51 -70
-94 -73 -97 -16 -12 -162 -234 -212 -320 -54 -92 -148 -272 -148 -282 0 -3
-12 -32 -27 -64 -15 -33 -28 -63 -30 -69 -1 -5 -20 -57 -41 -115 -68 -181
-108 -333 -148 -556 -36 -208 -47 -480 -31 -740 4 -61 9 -120 11 -131 3 -11 7
-44 11 -74 16 -137 73 -378 122 -514 13 -38 26 -77 28 -85 5 -26 103 -246 136
-307 68 -124 78 -142 131 -224 136 -209 357 -450 554 -606 266 -210 600 -378
948 -478 48 -14 98 -27 110 -29 11 -3 53 -12 91 -20 82 -18 242 -45 306 -51
228 -22 536 -26 689 -10 96 10 1658 11 3883 2 1075 -4 1107 -3 1107 15 0 27
-47 217 -77 312 -32 103 -78 199 -113 240 -26 30 -27 35 -29 166 -3 198 -16
436 -27 494 -2 10 -6 44 -9 75 -5 45 -33 198 -50 271 -10 41 -55 160 -75 195
-41 74 -132 148 -160 130 -6 -4 -11 11 -11 37 -1 24 -3 52 -4 63 -1 11 -5 54
-9 95 -8 89 -13 134 -21 215 -3 33 -8 80 -10 105 -3 25 -7 68 -10 96 -7 64
-12 108 -20 214 -4 47 -8 87 -10 90 -1 3 5 27 14 54 15 47 21 52 141 128 l126
80 -2 616 c-1 340 -2 654 -3 698 l-1 81 -45 13 c-25 7 -47 16 -50 20 -2 3 -7
30 -10 60 -6 53 3 83 95 295 51 116 92 223 105 269 7 28 30 110 50 181 20 72
45 162 55 200 10 39 41 153 69 254 l50 184 2 591 c1 967 1 1127 -3 1131 -3 4
-51 11 -133 20 -27 3 -84 10 -125 15 -162 20 -189 21 -246 11 -72 -13 -103
-17 -174 -26 -30 -4 -63 -9 -72 -10 -9 -2 -49 -6 -90 -10 -40 -4 -89 -8 -108
-10 -201 -24 -768 -23 -960 0 -19 2 -60 7 -90 10 -30 3 -71 8 -90 10 -19 3
-55 7 -79 10 -169 20 -548 100 -736 157 -413 124 -734 261 -1065 456 l-35 21
-25 -20z"/>
</g>
</svg>
